Coordinates
version=1
nRows=17
nColumns=36
inDegrees=yes

Units are S.I. units (second, meters, Newtons, ...)
If the header above contains a line with 'inDegrees', this indicates whether rotational values are in degrees (yes) or radians (no).

endheader
time	pelvis_tilt	pelvis_list	pelvis_rotation	pelvis_tx	pelvis_ty	pelvis_tz	hip_flexion_r	hip_adduction_r	hip_rotation_r	knee_angle_r	knee_angle_r_beta	ankle_angle_r	subtalar_angle_r	mtp_angle_r	hip_flexion_l	hip_adduction_l	hip_rotation_l	knee_angle_l	knee_angle_l_beta	ankle_angle_l	subtalar_angle_l	mtp_angle_l	lumbar_extension	lumbar_bending	lumbar_rotation	arm_flex_r	arm_add_r	arm_rot_r	elbow_flex_r	pro_sup_r	arm_flex_l	arm_add_l	arm_rot_l	elbow_flex_l	pro_sup_l
      1.19000000	     -4.46372494	      0.87636724	     -2.30811600	     -0.48691640	      1.12521913	     -0.59937070	     22.10667195	     -7.47513688	     -7.62584929	      6.67967207	      0.11658227	    -26.77679623	      3.23412682	     -6.60637778	     20.15167029	     -7.82528642	    -14.70666358	      6.39332677	      0.11158460	    -26.46875446	      0.75164755	     -6.60637778	    -13.62919285	      3.92779944	     -1.38437629	      1.94622424	     -3.86266960	    -14.44590166	     90.07693101	    105.03192089	     -2.08403784	    -15.91459162	     -8.73410720	     85.31696646	    109.96213967
      1.20000000	     -4.11991787	      1.05235791	     -2.55433175	     -0.47471004	      1.11033425	     -0.59923138	     22.29800691	     -7.80874828	     -7.72839559	      5.93874207	      0.10365060	    -27.08364345	      3.35590953	     -6.67294104	     20.27692475	     -7.87771336	    -14.92529931	      5.80142447	      0.10125396	    -26.76501161	      1.28189173	     -6.67294104	    -13.74868917	      3.84093076	     -0.97064814	      1.49139313	     -4.04581511	    -14.75123260	     90.36186341	    103.40807052	     -2.98479448	    -16.00127300	     -9.02590574	     86.19347425	    108.17090678
      1.21000000	     -3.51271543	      1.32078323	     -2.93449477	     -0.46237732	      1.09478967	     -0.59880415	     22.32357044	     -8.18603918	     -7.27606085	      5.71417828	      0.09973123	    -27.62110107	      2.62306735	     -6.78740335	     20.22401894	     -7.91656099	    -15.25330666	      5.91554884	      0.10324580	    -26.96298394	      1.74390680	     -6.78740335	    -14.12448921	      3.58168526	     -0.75223112	      1.37508098	     -4.20654140	    -14.65369500	     90.14669623	    103.27124280	     -4.18361867	    -15.94125311	    -10.15812696	     87.23528466	    108.80936644
      1.22000000	     -2.76813282	      1.55588869	     -3.19712245	     -0.45014802	      1.07841767	     -0.59854014	     22.31881061	     -8.64311329	     -7.11284773	      6.06100832	      0.10578455	    -27.93624351	      2.98952434	     -6.81927830	     20.21129164	     -7.98995639	    -14.96910051	      6.68975101	      0.11675818	    -27.55607572	      2.21265340	     -6.81927830	    -14.61886056	      3.37198056	     -0.15630433	      0.96505586	     -4.37411981	    -14.96592649	     90.33339743	    102.20414871	     -4.77028688	    -15.97727068	    -10.38359204	     88.09876681	    107.46408697
      1.23000000	     -1.97891965	      1.71896828	     -3.28046566	     -0.43841653	      1.06092333	     -0.59846642	     22.41092217	     -9.08096719	     -6.66821195	      7.07229164	      0.12343477	    -28.07452246	      2.92155550	     -6.94616923	     20.37352327	     -8.05683599	    -13.60615053	      8.09955673	      0.14136393	    -28.49278814	      1.50904682	     -6.94616923	    -15.22411895	      3.22324513	      0.03162286	      0.95469083	     -4.40678506	    -15.15262870	     90.12052959	    103.47023497	     -5.50310008	    -15.87389624	    -11.34455232	     89.00871560	    110.17552290
      1.24000000	     -1.09913877	      1.85797868	     -3.34007428	     -0.42688187	      1.04248589	     -0.59844423	     22.53801383	     -9.51031332	     -5.86947763	      8.63539563	      0.15071609	    -27.74116617	      3.22165877	     -6.97397515	     20.67329305	     -8.18450606	    -12.24744823	     10.32803829	      0.18025827	    -28.51811418	      1.52500240	     -6.97397515	    -15.91772011	      3.11175751	      0.52576368	      0.84463163	     -4.53838811	    -15.36737578	     90.17028601	    102.26746436	     -5.74437697	    -15.89122330	    -11.44737046	     90.03575338	    108.73751022
      1.25000000	      0.09400288	      2.00716649	     -3.46152811	     -0.41538671	      1.02343145	     -0.59842487	     22.57049034	     -9.97632534	     -5.11476640	     10.72530463	      0.18719188	    -27.97918943	      3.68492874	     -7.01133780	     20.73757889	     -8.22376280	    -10.73858649	     12.89266586	      0.22501947	    -29.52527949	      0.66570079	     -7.01133780	    -16.99135706	      2.98147086	      0.78148566	      1.16075778	     -4.54388694	    -15.40761713	     90.10468034	    101.38826636	     -6.16438052	    -15.83233790	    -12.10905173	     91.31083057	    107.86727427
      1.26000000	      1.23407822	      2.13105221	     -3.61975834	     -0.40409736	      1.00328859	     -0.59827922	     22.82494782	    -10.36057323	     -4.03646209	     13.08616309	      0.22839663	    -28.66247894	      3.76830512	     -7.05000022	     21.09712332	     -8.34536107	     -9.50896971	     15.82681547	      0.27623004	    -30.77560078	      0.60929879	     -7.05000022	    -18.01535085	      2.85412283	      1.09757097	      1.64920459	     -4.58781795	    -15.28736774	     89.85210311	    100.70275924	     -6.49303663	    -15.91519520	    -12.43782164	     92.51809160	    107.37470287
      1.27000000	      2.33003331	      2.28675836	     -3.75969514	     -0.39351589	      0.98232554	     -0.59810179	     23.31984276	    -10.72848021	     -2.66581406	     16.44968806	      0.28710122	    -26.02798333	      2.82784999	     -7.09217758	     21.71766916	     -8.38505433	     -8.14496782	     19.69913942	      0.34381484	    -28.92480154	     -0.22117198	     -7.09217758	    -19.11579601	      2.65319337	      1.58947796	      2.22072396	     -4.61877489	    -15.26189475	     89.74912184	     98.83398588	     -6.34796622	    -16.04550135	    -12.13619642	     93.71324369	    105.35491464
      1.28000000	      3.25308016	      2.58588744	     -3.91556979	     -0.38385911	      0.96026654	     -0.59806091	     24.48501790	    -11.23751340	     -1.32739309	     22.19262477	      0.38733437	    -15.95880532	      1.46222560	     -7.18854380	     22.77107802	     -8.15720609	     -6.51782089	     25.48098706	      0.44472712	    -21.63779932	     -3.48389957	     -7.18854380	    -20.13924950	      2.32729015	      1.71784479	      3.38910149	     -4.65650080	    -14.85224536	     88.96840671	    100.17116990	     -6.27806608	    -16.05796739	    -12.70540409	     94.45470511	    108.87656526
      1.29000000	      4.10661136	      2.72516487	     -4.14918610	     -0.37506656	      0.93694697	     -0.59786707	     26.22129886	    -11.48526130	     -0.14833677	     29.78798727	      0.51989846	     -2.48685549	     -0.20327448	     -7.26504031	     24.38279918	     -8.29502612	     -5.44015632	     33.29579802	      0.58112130	     -9.61252334	     -5.06036031	     -7.26504031	    -21.23845725	      2.17556149	      2.38853873	      4.52962142	     -4.73773393	    -14.62274485	     88.92096824	     96.84787719	     -5.51604287	    -16.14905280	    -12.12349116	     95.58059143	    105.09814968
      1.30000000	      4.71311274	      2.64759687	     -4.32256176	     -0.36789251	      0.91271612	     -0.59820098	     28.75505726	    -11.46512870	      0.95900050	     37.82266965	      0.66013012	      7.81440852	     -1.62640725	     -7.32162524	     26.85977227	     -8.56969953	     -4.24798995	     41.69471076	      0.72770998	      0.66077706	     -6.26236903	     -7.32162524	    -22.36473526	      2.32651303	      2.81448484	      6.36973410	     -4.90857840	    -14.26884590	     87.89368231	    101.53316901	     -4.56225625	    -15.98772484	    -12.60790945	     95.69309309	    111.19888811
      1.31000000	      4.95465400	      2.38615275	     -4.68760971	     -0.36287690	      0.88883925	     -0.59911669	     32.30168438	    -11.10501410	      2.39165448	     45.55060416	      0.79500802	     13.33420174	     -2.70606170	     -7.35020707	     29.79618063	     -8.95493666	     -3.18185451	     49.23268903	      0.85927252	      8.35974884	     -6.94004723	     -7.35020707	    -23.57476318	      2.69045391	      3.66645820	      8.67865003	     -5.24631234	    -13.76834388	     87.34033776	     99.26651739	     -2.96281083	    -15.55888076	    -12.10739082	     96.29945767	    108.35972724
      1.32000000	      4.33920350	      2.28803142	     -5.32425994	     -0.35919723	      0.86566546	     -0.60065649	     37.32476885	    -10.59462927	      4.31853193	     53.12094128	      0.92713533	     15.43729182	     -4.15874308	     -7.36654253	     32.99630691	     -9.04587486	     -2.29751178	     55.11060399	      0.96186149	     13.60601752	     -9.43542753	     -7.36654253	    -24.17038111	      2.94517992	      4.78690347	     11.35697848	     -5.66229757	    -13.25858745	     86.33036093	     97.07647870	     -0.97493586	    -14.75334711	    -11.53097993	     96.23284347	    105.65463824
      1.33000000	      2.74041937	      2.48908665	     -5.86810255	     -0.35521480	      0.84307351	     -0.60262838	     43.37306114	    -10.36047187	      6.00904434	     60.39796221	      1.05414330	     17.44837236	     -2.98572938	     -7.38447482	     36.60262539	     -8.91172211	     -1.61517626	     59.84901985	      1.04456245	     19.17305294	     -9.44819993	     -7.38447482	    -23.67809436	      3.07186790	      5.61833103	     14.20478700	     -5.88916177	    -12.86849544	     84.10725360	    100.86225264	      0.94553516	    -13.70523171	    -11.49876201	     94.70224548	    110.62227776
      1.34000000	      0.76552027	      2.36577373	     -6.09400305	     -0.35122939	      0.82202543	     -0.60448409	     48.75153583	     -9.85235800	      7.02733037	     66.11869544	      1.15398893	     18.92961106	     -2.38324942	     -7.38863771	     40.62160100	     -8.86157941	     -0.25941134	     64.20936023	      1.12066475	     22.50838725	    -10.55082206	     -7.38863771	    -22.97104084	      3.64983812	      6.27500667	     17.09693057	     -5.98808445	    -12.19260383	     82.14805704	    100.82107540	      2.79602726	    -12.78709825	    -10.69871894	     93.50461711	    110.48555275
      1.35000000	     -1.10914115	      1.72578930	     -6.23015466	     -0.34795976	      0.80303229	     -0.60565961	     52.80707634	     -8.97023560	      7.21493143	     70.05501619	      1.22269069	     20.31635441	     -2.68262437	     -7.39012311	     44.98183065	     -9.24865262	      1.55448826	     68.85627281	      1.20176867	     24.30826476	    -11.70121439	     -7.39012311	    -22.71778634	      4.70810152	      6.97888019	     20.23152475	     -5.83006828	    -11.69121186	     80.39692592	    100.67843974	      4.65234906	    -12.10257142	     -9.66853067	     92.55813163	    110.39612540
